<svg id="Layer_1" data-name="Layer 1" xmlns="http://www.w3.org/2000/svg" viewBox="0 0 267.54 92.29"><defs><style>.cls-1,.cls-7,.cls-8{fill:#fff;}.cls-2{fill:#e5001f;}.cls-3{fill:#343c7b;}.cls-4{fill:#807fac;}.cls-5{fill:#ee5847;}.cls-6{fill:#c1c1c0;}.cls-7,.cls-8{stroke:#fff;}.cls-7{stroke-width:0.75px;}.cls-8{stroke-width:0.5px;}</style></defs><title>logo</title><g id="Group_5634" data-name="Group 5634"><g id="Logo"><path id="Path_2220" data-name="Path 2220" class="cls-1" d="M119.33,51.13a6.82,6.82,0,0,1-6.8,6.8H83.63v12.6h31.5A17.89,17.89,0,0,0,133,52.67V19.73h-13.7v31.4Z"/><path id="Path_2221" data-name="Path 2221" class="cls-1" d="M158.83,57.43a12.25,12.25,0,0,1-12.2-12.2h0A12.24,12.24,0,0,1,158.83,33h24l-13.06-12.9h-11.7a25,25,0,1,0,0,50h7.73l13.4-12.8Z"/><path id="Path_2222" data-name="Path 2222" class="cls-2" d="M211,33l9.1,8.4,23.2-21.7h-18.2Z"/><path id="Path_2223" data-name="Path 2223" class="cls-1" d="M208.23,52.43l17.6,17.9h19.1l-51.3-50.4h-19.2l24.7,23.5-28.2,27h18.3Z"/><path id="Path_2224" data-name="Path 2224" class="cls-1" d="M38.93,31.43l33.2,6.3V30l-33-17.3Z"/><path id="Path_2225" data-name="Path 2225" class="cls-3" d="M38.83,57.53l23-4.5V42.43l-22.7-4.8-.3,19.9Z"/><path id="Path_2226" data-name="Path 2226" class="cls-4" d="M39.13,37.63l-33,6.7v7.1l32.7,6.1.3-19.9Z"/><path id="Path_2227" data-name="Path 2227" class="cls-2" d="M39.13,64.23l33-5.8v7.93l-32.9,16.9-.1-19Z"/><path id="Path_2228" data-name="Path 2228" class="cls-5" d="M39.23,83.13l-23.1-11.7V60.23l23,4.1.1,18.8Z"/><path id="Path_2229" data-name="Path 2229" class="cls-6" d="M39.13,12.63l-23,11.9v11.1l22.8-4.2Z"/><path id="Path_2230" data-name="Path 2230" class="cls-7" d="M79,80.83a3.69,3.69,0,0,0-.1-1,3.64,3.64,0,0,0-.4-.9c-.2-.2-.4-.5-.6-.6a1.5,1.5,0,0,0-.9-.2,2.83,2.83,0,0,0-1,.2c-.3.1-.5.4-.7.6a2.29,2.29,0,0,0-.4.9,3,3,0,0,0-.1,1,3.78,3.78,0,0,0,.1,1,3.44,3.44,0,0,0,.4.9,1.33,1.33,0,0,0,.7.6,1.8,1.8,0,0,0,1,.2,3.09,3.09,0,0,0,.9-.2,1.91,1.91,0,0,0,.6-.6,2.51,2.51,0,0,0,.4-.9C78.93,81.43,79,81.13,79,80.83Zm-5-5.5h.8v3.6h0l.3-.6a.94.94,0,0,1,.5-.4l.6-.3a1.39,1.39,0,0,1,.7-.1,2.3,2.3,0,0,1,1.2.3,5.44,5.44,0,0,1,.9.7,3.92,3.92,0,0,1,.5,1.1,5.18,5.18,0,0,1,.2,1.3,4.62,4.62,0,0,1-.7,2.4,2.27,2.27,0,0,1-.9.7,2.77,2.77,0,0,1-1.2.3,2.46,2.46,0,0,1-1.4-.4,2.13,2.13,0,0,1-.9-1h0v1.2h-.7V75.36Z"/><path id="Path_2231" data-name="Path 2231" class="cls-7" d="M93,80.36a2,2,0,0,0-.2-.8,1.53,1.53,0,0,0-.4-.7,2.58,2.58,0,0,0-.6-.5,2.3,2.3,0,0,0-.8-.2,1.72,1.72,0,0,0-.8.2,2.22,2.22,0,0,0-.6.5,2.32,2.32,0,0,0-.4.7,2.19,2.19,0,0,0-.2.8Zm-4.1.7a2.52,2.52,0,0,0,.1.9,2,2,0,0,0,.4.8l.6.6a1.48,1.48,0,0,0,.9.2,2,2,0,0,0,1.3-.4,2.48,2.48,0,0,0,.7-1.2h.8a2.67,2.67,0,0,1-.9,1.6,3,3,0,0,1-1.8.6,3.21,3.21,0,0,1-1.3-.3,5.16,5.16,0,0,1-.9-.7,3.53,3.53,0,0,1-.5-1.1,4,4,0,0,1,0-2.5,4.76,4.76,0,0,1,.5-1.1,1.54,1.54,0,0,1,.9-.7,2.67,2.67,0,0,1,1.3-.3,3,3,0,0,1,1.3.3,6.14,6.14,0,0,1,.9.8,3.92,3.92,0,0,1,.5,1.1,6.23,6.23,0,0,1,.1,1.3Z"/><path id="Path_2232" data-name="Path 2232" class="cls-7" d="M101.63,77.63h.8l2.1,5.3,1.9-5.3h.8l-2.8,7.2a4.34,4.34,0,0,0-.3.7,1.68,1.68,0,0,1-.3.4.84.84,0,0,1-.4.2c-.2,0-.4.1-.6.1h-.6v-.6h.6a.63.63,0,0,0,.4-.1c.1,0,.2-.1.3-.2s.2-.2.2-.3a.76.76,0,0,1,.2-.4l.3-.7Z"/><path id="Path_2233" data-name="Path 2233" class="cls-7" d="M118.13,78.13a3.42,3.42,0,0,0-1,.2,3.64,3.64,0,0,0-.7.6,2.29,2.29,0,0,0-.4.9,3,3,0,0,0-.1,1,3.1,3.1,0,0,0,.1,1,3.44,3.44,0,0,0,.4.9,1.33,1.33,0,0,0,.7.6,1.65,1.65,0,0,0,1,.2,3.78,3.78,0,0,0,1-.2,5,5,0,0,0,.7-.6,2.51,2.51,0,0,0,.4-.9,3.4,3.4,0,0,0,.1-1,3.69,3.69,0,0,0-.1-1,3.64,3.64,0,0,0-.4-.9,1.37,1.37,0,0,0-.7-.6A3.86,3.86,0,0,0,118.13,78.13Zm0-.6a3,3,0,0,1,1.3.3,2.27,2.27,0,0,1,.9.7,5.89,5.89,0,0,1,.6,1,5.18,5.18,0,0,1,.2,1.3,6.39,6.39,0,0,1-.2,1.3,2.11,2.11,0,0,1-.6,1,6,6,0,0,1-.9.7,3,3,0,0,1-1.3.3,3.21,3.21,0,0,1-1.3-.3,2.14,2.14,0,0,1-.9-.7,5.1,5.1,0,0,1-.6-1,4.82,4.82,0,0,1-.2-1.3,5.18,5.18,0,0,1,.2-1.3,2.06,2.06,0,0,1,.6-1,4.72,4.72,0,0,1,.9-.7A2.67,2.67,0,0,1,118.13,77.53Z"/><path id="Path_2234" data-name="Path 2234" class="cls-7" d="M129.77,77.73h.8v1.1h0a1.38,1.38,0,0,1,.8-.9,2.51,2.51,0,0,1,1.2-.3,2.12,2.12,0,0,1,1.1.2,1.74,1.74,0,0,1,.7.5,2,2,0,0,1,.4.8,3.69,3.69,0,0,1,.1,1v4h-.8v-3.9a1.83,1.83,0,0,0-.1-.7.89.89,0,0,0-.3-.6,1,1,0,0,0-.5-.4,1,1,0,0,0-.8-.1,1.72,1.72,0,0,0-.8.2c-.2.1-.4.3-.6.4a1.53,1.53,0,0,0-.4.7,2.47,2.47,0,0,0-.1.9v3.6h-.8l.1-6.5Z"/><path id="Path_2235" data-name="Path 2235" class="cls-7" d="M144.23,80.83a3.78,3.78,0,0,0,.1,1,3.44,3.44,0,0,0,.4.9c.2.2.4.5.6.6a1.48,1.48,0,0,0,.9.2,3.12,3.12,0,0,0,1-.2,5,5,0,0,0,.7-.6,2.51,2.51,0,0,0,.4-.9,3.4,3.4,0,0,0,.1-1,3.69,3.69,0,0,0-.1-1,3.64,3.64,0,0,0-.4-.9,1.37,1.37,0,0,0-.7-.6,1.84,1.84,0,0,0-1-.2,2.74,2.74,0,0,0-.9.2,1.57,1.57,0,0,0-.6.6,3.3,3.3,0,0,0-.4.9C144.33,80.13,144.23,80.43,144.23,80.83Zm5,3.1h-.7v-1.2h0a2.42,2.42,0,0,1-.4.6,1.76,1.76,0,0,1-.5.4l-.6.3a1.89,1.89,0,0,1-.7.1,2.48,2.48,0,0,1-1.2-.3,5.16,5.16,0,0,1-.9-.7,3.53,3.53,0,0,1-.5-1.1,4.82,4.82,0,0,1-.2-1.3,5.18,5.18,0,0,1,.2-1.3,4.76,4.76,0,0,1,.5-1.1,2.14,2.14,0,0,1,.9-.7,2.51,2.51,0,0,1,1.2-.3,1.55,1.55,0,0,1,.7.1c.2.1.4.1.6.3a2.1,2.1,0,0,1,.5.4.89.89,0,0,1,.3.6h0v-3.6h.8v8.8Z"/><path id="Path_2236" data-name="Path 2236" class="cls-7" d="M174.13,80.83a3.69,3.69,0,0,0-.1-1,3.64,3.64,0,0,0-.4-.9c-.2-.2-.4-.5-.6-.6a1.5,1.5,0,0,0-.9-.2,2.83,2.83,0,0,0-1,.2c-.3.1-.5.4-.7.6a2.29,2.29,0,0,0-.4.9,3,3,0,0,0-.1,1,3.78,3.78,0,0,0,.1,1,3.44,3.44,0,0,0,.4.9,1.33,1.33,0,0,0,.7.6,1.8,1.8,0,0,0,1,.2,3.09,3.09,0,0,0,.9-.2,1.91,1.91,0,0,0,.6-.6,2.51,2.51,0,0,0,.4-.9A3.78,3.78,0,0,0,174.13,80.83Zm-5-5.5h.8v3.6h0l.3-.6a.94.94,0,0,1,.5-.4l.6-.3a1.39,1.39,0,0,1,.7-.1,2.3,2.3,0,0,1,1.2.3,5.44,5.44,0,0,1,.9.7,3.92,3.92,0,0,1,.5,1.1,5.18,5.18,0,0,1,.2,1.3,4.62,4.62,0,0,1-.7,2.4,2.27,2.27,0,0,1-.9.7,2.77,2.77,0,0,1-1.2.3,2.46,2.46,0,0,1-1.4-.4,2.13,2.13,0,0,1-.9-1h0v1.2H169l.1-8.8Z"/><path id="Path_2237" data-name="Path 2237" class="cls-7" d="M186.23,78.13a3.42,3.42,0,0,0-1,.2,3.64,3.64,0,0,0-.7.6,2.29,2.29,0,0,0-.4.9,3,3,0,0,0-.1,1,3.1,3.1,0,0,0,.1,1,3.44,3.44,0,0,0,.4.9,1.33,1.33,0,0,0,.7.6,1.65,1.65,0,0,0,1,.2,3.78,3.78,0,0,0,1-.2,5,5,0,0,0,.7-.6,2.51,2.51,0,0,0,.4-.9,3.4,3.4,0,0,0,.1-1,3.69,3.69,0,0,0-.1-1,3.64,3.64,0,0,0-.4-.9,1.37,1.37,0,0,0-.7-.6A2.87,2.87,0,0,0,186.23,78.13Zm0-.6a3,3,0,0,1,1.3.3,2.27,2.27,0,0,1,.9.7,5.89,5.89,0,0,1,.6,1,5.18,5.18,0,0,1,.2,1.3,6.39,6.39,0,0,1-.2,1.3,2.11,2.11,0,0,1-.6,1,6,6,0,0,1-.9.7,3,3,0,0,1-1.3.3,3.21,3.21,0,0,1-1.3-.3,2.14,2.14,0,0,1-.9-.7,5.1,5.1,0,0,1-.6-1,4.82,4.82,0,0,1-.2-1.3,5.18,5.18,0,0,1,.2-1.3,2.06,2.06,0,0,1,.6-1,4.72,4.72,0,0,1,.9-.7A3.25,3.25,0,0,1,186.23,77.53Z"/><path id="Path_2238" data-name="Path 2238" class="cls-7" d="M197.83,77.73h.8v1.1h0a1.38,1.38,0,0,1,.8-.9,2.51,2.51,0,0,1,1.2-.3,2.12,2.12,0,0,1,1.1.2,1.74,1.74,0,0,1,.7.5,2,2,0,0,1,.4.8,3.69,3.69,0,0,1,.1,1v4h-.8v-3.9a1.83,1.83,0,0,0-.1-.7.89.89,0,0,0-.3-.6,1,1,0,0,0-.5-.4,1,1,0,0,0-.8-.1,1.72,1.72,0,0,0-.8.2c-.2.1-.4.3-.6.4a1.53,1.53,0,0,0-.4.7c-.1.3-.1.6-.2.9v3.6h-.8l.2-6.5Z"/><path id="Path_2239" data-name="Path 2239" class="cls-7" d="M212.43,80.83a3.78,3.78,0,0,0,.1,1,3.44,3.44,0,0,0,.4.9c.2.2.4.5.6.6a1.48,1.48,0,0,0,.9.2,3.12,3.12,0,0,0,1-.2c.3-.1.5-.4.7-.6a2.51,2.51,0,0,0,.4-.9,3.4,3.4,0,0,0,.1-1,3.69,3.69,0,0,0-.1-1,3.64,3.64,0,0,0-.4-.9,1.37,1.37,0,0,0-.7-.6,1.84,1.84,0,0,0-1-.2,2.74,2.74,0,0,0-.9.2,1.57,1.57,0,0,0-.6.6,3.3,3.3,0,0,0-.4.9A3,3,0,0,0,212.43,80.83Zm5,3.1h-.66v-1.2h0a2.42,2.42,0,0,1-.4.6,1.76,1.76,0,0,1-.5.4l-.6.3a1.89,1.89,0,0,1-.7.1,2.48,2.48,0,0,1-1.2-.3,5.16,5.16,0,0,1-.9-.7A3.53,3.53,0,0,1,212,82a4.82,4.82,0,0,1-.2-1.3,5.18,5.18,0,0,1,.2-1.3,4.76,4.76,0,0,1,.5-1.1,2.14,2.14,0,0,1,.9-.7,2.51,2.51,0,0,1,1.2-.3,1.55,1.55,0,0,1,.7.1c.2.1.4.1.6.3a2.1,2.1,0,0,1,.5.4.89.89,0,0,1,.3.6h0v-3.6h.8v8.8Z"/><path id="Path_2240" data-name="Path 2240" class="cls-7" d="M226.43,77.73h.8v6.2h-.8Zm0-2.4h.8v1.2h-.8Z"/><path id="Path_2241" data-name="Path 2241" class="cls-7" d="M236.13,77.73h.8v1.1h0a1.38,1.38,0,0,1,.8-.9,1.75,1.75,0,0,1,1.2-.3,2.12,2.12,0,0,1,1.1.2,1.74,1.74,0,0,1,.7.5,2,2,0,0,1,.4.8,3.69,3.69,0,0,1,.1,1v4h-.8v-3.9a1.83,1.83,0,0,0-.1-.7.89.89,0,0,0-.3-.6,1,1,0,0,0-.5-.4,1,1,0,0,0-.8-.1,1.72,1.72,0,0,0-.8.2c-.2.1-.4.3-.6.4a1.53,1.53,0,0,0-.4.7c-.1.3-.1.6-.2.9v3.6h-.8l.2-6.5Z"/><path id="Path_2242" data-name="Path 2242" class="cls-7" d="M252.77,83.23a3.09,3.09,0,0,0,.9-.2,1.21,1.21,0,0,0,.6-.6,2.08,2.08,0,0,0,.4-.8,4.2,4.2,0,0,0,0-1.8,2,2,0,0,0-.4-.8c-.2-.2-.4-.5-.6-.6a1.5,1.5,0,0,0-.9-.2,2.74,2.74,0,0,0-.9.2.86.86,0,0,0-.6.6,2.61,2.61,0,0,0-.4.8,3,3,0,0,0-.1,1,2.52,2.52,0,0,0,.1.9,2,2,0,0,0,.4.8l.6.6C252.17,83.13,252.47,83.23,252.77,83.23Zm2.8.2a2.6,2.6,0,0,1-.2,1.2,2.84,2.84,0,0,1-.5.9,1.54,1.54,0,0,1-.9.6,5.25,5.25,0,0,1-1.3.2,3,3,0,0,1-.9-.1c-.28-.09-.54-.19-.8-.3l-.6-.6a1.42,1.42,0,0,1-.3-.9h.8a1.47,1.47,0,0,0,.2.6c.1.2.3.3.4.4a1.38,1.38,0,0,0,.6.2c.2,0,.4.1.6.1a1.74,1.74,0,0,0,1.5-.6,3.43,3.43,0,0,0,.5-1.7v-.8h0a1.85,1.85,0,0,1-.8.9,2.89,2.89,0,0,1-1.2.4,6.29,6.29,0,0,1-1.3-.2,5.16,5.16,0,0,1-.9-.7,2.94,2.94,0,0,1-.5-1,4,4,0,0,1,0-2.5,2.94,2.94,0,0,1,.5-1,2.14,2.14,0,0,1,.9-.7,1.73,1.73,0,0,1,1.2-.2,1.89,1.89,0,0,1,.7.1l.6.3c.2.1.3.3.5.4a2.29,2.29,0,0,1,.3.5h0v-1.1h.8l.1,5.6Z"/><g id="Group_5065" data-name="Group 5065"><g id="Group_5064" data-name="Group 5064"><path id="Path_2243" data-name="Path 2243" class="cls-8" d="M251.45,12.2h-1.8v5.5H249V12.2h-1.8v-.7h4.3Z"/><path id="Path_2244" data-name="Path 2244" class="cls-8" d="M258.77,17.7h-.7V13.5a5.31,5.31,0,0,1,.1-1.2h0a1.47,1.47,0,0,1-.2.6l-2.1,4.8h-.4l-2.1-4.7c-.1-.2-.1-.4-.2-.6h0v5.3h-.7V11.5h1l1.9,4.3c.1.2.2.5.3.7h0a5.48,5.48,0,0,1,.3-.8l1.9-4.3h.9Z"/></g><path id="Path_2245" data-name="Path 2245" class="cls-1" d="M260.62,14.16a7.28,7.28,0,0,1-7.26,7.3h0A7.28,7.28,0,0,1,246,14.2v0h0a7.28,7.28,0,0,1,7.26-7.3h0A7.33,7.33,0,0,1,260.62,14.16ZM253.22,6a8.2,8.2,0,1,0,8.2,8.2,8.11,8.11,0,0,0-8-8.2Z"/></g></g></g></svg>